Coordinates
version=1
nRows=7
nColumns=46
inDegrees=yes

Units are S.I. units (second, meters, Newtons, ...)
Angles are in degrees.

endheader
time	pelvis_tilt	pelvis_list	pelvis_rotation	pelvis_tx	pelvis_ty	pelvis_tz	bb_angle	bb_tx	bb_ty	bb_tz	hip_flexion_r	hip_adduction_r	hip_rotation_r	knee_angle_r	knee_angle_r_beta	ankle_angle_r	subtalar_angle_r	mtp_angle_r	crank_angle_r	hip_flexion_l	hip_adduction_l	hip_rotation_l	knee_angle_l	knee_angle_l_beta	ankle_angle_l	subtalar_angle_l	mtp_angle_l	crank_angle_l	lumbar_extension	lumbar_bending	lumbar_rotation	arm_flex_r	arm_add_r	arm_rot_r	elbow_flex_r	pro_sup_r	wrist_flex_r	wrist_dev_r	arm_flex_l	arm_add_l	arm_rot_l	elbow_flex_l	pro_sup_l	wrist_flex_l	wrist_dev_l
      5.00000000	    -33.88881188	      6.56717684	      2.28068340	      0.36906007	      1.09298141	     -0.26220605	      0.00000000	      0.50000000	      0.00000000	      0.25000000	     60.23315206	     -6.04390021	      7.26493974	     73.08606268	      1.27559243	    -19.27730302	    -11.19883586	      0.00000000	      0.00000000	     74.86597029	     -5.51970402	     -3.29133236	     66.14368093	      1.15442501	      4.78153284	     -4.85142981	      0.00000000	      0.00000000	    -89.88524834	      8.98040040	    -23.04366228	     86.44005989	     23.35125825	     37.76671359	    122.46745823	     47.83077393	      0.00000000	      0.00000000	    -13.41758477	    -54.93064476	    -88.84197314	    148.60553687	     39.31895580	      0.00000000	      0.00000000
      5.00500000	    -33.57798259	      6.09966996	      2.05732392	      0.36918080	      1.09124771	     -0.26227372	      0.00000000	      0.50000000	      0.00000000	      0.25000000	     60.88336574	     -5.29296343	      7.32557871	     75.12478947	      1.31117493	    -19.20667414	    -11.38598034	      0.00000000	      0.00000000	     73.91754404	     -5.81109585	     -3.03476406	     64.85754518	      1.13197771	      4.36137437	     -4.68745416	      0.00000000	      0.00000000	    -89.88805279	      8.77910445	    -22.69788376	     86.29025517	     23.28952813	     37.76727732	    122.45526632	     47.83189669	      0.00000000	      0.00000000	    -13.43918643	    -54.69214245	    -88.85091554	    148.61290420	     39.35322896	      0.00000000	      0.00000000
      5.01000000	    -33.26408316	      5.86395067	      1.72156413	      0.36929253	      1.08920527	     -0.26197891	      0.00000000	      0.50000000	      0.00000000	      0.25000000	     61.60791615	     -4.56933397	      7.61383704	     77.35355956	      1.35007430	    -18.38867113	    -11.86454278	      0.00000000	      0.00000000	     72.95488971	     -6.24532856	     -3.17679756	     63.65327321	      1.11095920	      3.53952772	     -4.49079175	      0.00000000	      0.00000000	    -89.88770909	      8.44741764	    -22.59761367	     85.87652487	     23.13243696	     37.75783075	    122.47965374	     47.84547655	      0.00000000	      0.00000000	    -13.54215351	    -54.16639291	    -88.81094554	    148.67266135	     39.46524094	      0.00000000	      0.00000000
      5.01500000	    -32.91516192	      5.70157253	      1.40979440	      0.36952094	      1.08722187	     -0.26182497	      0.00000000	      0.50000000	      0.00000000	      0.25000000	     62.31028596	     -3.94812547	      7.96160378	     79.52576382	      1.38798642	    -17.74353497	    -11.68895445	      0.00000000	      0.00000000	     71.86983584	     -6.50967037	     -3.25823511	     62.37988889	      1.08873445	      2.85894877	     -4.34722503	      0.00000000	      0.00000000	    -89.88808334	      8.08738465	    -22.72177448	     84.95031544	     23.00322694	     37.86900100	    122.81128076	     47.96385046	      0.00000000	      0.00000000	    -14.43894659	    -53.33350838	    -88.82304616	    148.73865932	     39.99325398	      0.00000000	      0.00000000
      5.02000000	    -32.56247673	      5.28717106	      1.10231507	      0.36955420	      1.08508592	     -0.26165149	      0.00000000	      0.50000000	      0.00000000	      0.25000000	     62.97076106	     -3.17217778	      8.00537186	     81.63429961	      1.42478731	    -17.13827052	    -12.05291166	      0.00000000	      0.00000000	     70.88047820	     -6.90576948	     -3.17511450	     61.22385493	      1.06855785	      2.24374957	     -4.25188356	      0.00000000	      0.00000000	    -89.89007967	      7.83478495	    -22.42528536	     84.72267226	     22.88453681	     37.87638231	    122.81365028	     47.97742890	      0.00000000	      0.00000000	    -14.60621403	    -52.91823384	    -88.81510667	    148.76218181	     40.14278207	      0.00000000	      0.00000000
      5.02500000	    -32.20338940	      5.02875104	      0.72349540	      0.36960037	      1.08290073	     -0.26147123	      0.00000000	      0.50000000	      0.00000000	      0.25000000	     63.70070099	     -2.44341827	      8.22721040	     83.74476028	      1.46162180	    -16.59773175	    -12.01840816	      0.00000000	      0.00000000	     69.81250861	     -7.31357444	     -3.29016010	     60.03896145	      1.04787756	      1.63653874	     -4.17802628	      0.00000000	      0.00000000	    -89.89029898	      7.45223033	    -22.35434841	     84.22743436	     22.65398547	     37.96115182	    122.88512782	     48.03144531	      0.00000000	      0.00000000	    -15.13037172	    -52.15117745	    -88.81765132	    148.78701790	     40.49920652	      0.00000000	      0.00000000
      5.03000000	    -31.84492474	      4.61346586	      0.46121299	      0.36945710	      1.08073251	     -0.26145613	      0.00000000	      0.50000000	      0.00000000	      0.25000000	     64.38673102	     -1.70093996	      8.23195598	     85.79965680	      1.49748651	    -16.09692716	    -12.27424729	      0.00000000	      0.00000000	     68.80738059	     -7.64615825	     -3.10209749	     58.91456135	      1.02825307	      1.02805745	     -3.96473596	      0.00000000	      0.00000000	    -89.89136829	      7.30192047	    -21.93321491	     84.08559109	     22.55404716	     38.00373552	    122.87508803	     48.04392236	      0.00000000	      0.00000000	    -15.30733404	    -51.79435144	    -88.81844999	    148.80185796	     40.60709634	      0.00000000	      0.00000000
